<svg width="122" height="22" viewBox="0 0 122 22" fill="none" xmlns="http://www.w3.org/2000/svg">
<path d="M20.2429 12.8143C19.5392 13.9989 18.6522 15.003 17.6201 15.8806C17.2051 16.2389 16.8236 16.6593 16.4616 17.0802C16.2098 17.3619 16.2799 17.5839 16.6199 17.7161C16.9747 17.857 17.3003 17.7566 17.6098 17.5296C17.9193 17.3026 18.2859 17.2686 18.4811 17.4454C18.7062 17.6394 18.7702 18.0608 18.6299 18.4068C18.4304 18.8896 18.0636 19.233 17.6838 19.5476C13.8893 22.7197 7.32552 22.9586 3.85461 19.2402C0.38239 15.5611 0.521399 9.68709 4.11317 6.2245C4.74206 5.61596 5.43143 5.07437 6.08263 4.47871C6.63192 3.9737 7.05102 3.35082 7.46269 2.72364C7.67918 2.40018 7.91515 2.0773 8.17162 1.78761C8.38548 1.53738 8.66263 1.36639 8.98557 1.33929C9.49781 1.29336 9.8942 1.75712 9.84165 2.34606C9.8199 2.58976 9.7443 2.82372 9.70306 3.06684C9.64814 3.41951 9.7719 3.5657 10.1115 3.52688C10.5337 3.48236 10.8589 3.21099 11.1767 2.93533C11.7057 2.48266 12.1621 1.96676 12.5553 1.37161C12.8458 0.920026 13.1967 0.53539 13.7039 0.326418C14.5812 -0.0426466 15.3407 0.513304 15.2314 1.47522C15.1813 1.90541 15.055 2.31298 14.7959 2.6759C14.6793 2.84349 14.5581 3.01908 14.4341 3.18238C14.1324 3.58476 13.9171 4.02635 13.9303 4.53579C13.956 5.6931 13.0296 6.52496 12.058 6.59395C11.6255 6.62188 11.1883 6.57229 10.7677 6.51097C10.5402 6.47574 10.358 6.32781 10.2961 6.05721C10.165 5.51171 9.79067 5.37031 9.30972 5.7226C7.1557 8.03504 8.98557 12.432 15.003 6.5752C15.3253 5.81098 15.8503 5.22788 16.5687 4.8419C16.8561 4.68751 17.1688 4.64382 17.4449 4.83525C17.7861 5.08561 17.8222 5.46948 17.7618 5.88307C17.6823 6.46714 17.5787 7.05864 17.6867 7.64418C17.7271 7.849 17.8018 8.06297 17.895 8.24491C18.032 8.50552 18.317 8.50988 18.5039 8.25478C18.5927 8.13524 18.6519 7.99853 18.7138 7.87412C18.9612 7.29095 19.5091 6.97729 20.0959 7.05981C21.0568 7.1982 21.5217 7.98977 21.4775 9.01062C21.4349 9.92565 21.1546 10.7888 20.7861 11.6331C20.6181 12.0272 20.4231 12.4165 20.2401 12.802L20.2429 12.8143ZM19.0163 9.56495C18.9574 9.78719 18.8265 10.2028 18.7179 10.6312C18.6397 10.9384 18.7749 11.2193 18.9895 11.3112C19.283 11.438 19.6383 11.3548 19.8327 11.104C20.1678 10.6782 20.3403 10.1905 20.3363 9.66509C20.3332 9.48174 20.2779 9.26834 20.1644 9.13874C19.8611 8.7714 19.4047 8.89228 19.0163 9.56495Z" fill="white"/>
<path d="M14.9575 12.0474C14.583 13.6701 13.0852 16.9155 10.0894 16.9155C8.96584 16.9155 6.56945 16.5411 5.97021 15.0435C7.96738 14.669 12.5608 13.5452 14.9575 12.0474ZM0.565918 13.5005C0.565918 12.3022 0.603026 12.4219 0.603027 12.7964C1.4768 13.4205 3.06554 14.5002 4.72217 15.0435C4.59724 15.418 4.12273 16.1665 3.22412 16.1665C2.10082 16.1663 0.566245 14.9981 0.565918 13.5005Z" fill="#151515"/>
<path d="M116.846 4.96368C117.551 4.96368 118.221 5.10055 118.847 5.38263L118.846 5.38361C119.521 5.68304 120.064 6.15794 120.466 6.78595H120.467L120.468 6.7879C120.469 6.79011 120.47 6.79253 120.471 6.79474C120.915 7.47675 121.096 8.31883 121.096 9.24493V18.9236H100.27V5.38165H107.281V5.68243L107.285 5.6795C108.156 5.20155 109.101 4.96368 110.106 4.96368C110.62 4.96368 111.118 5.0398 111.595 5.19708C112.087 5.35902 112.531 5.61193 112.921 5.95099H112.922C113.139 6.13573 113.328 6.34727 113.489 6.58087L113.558 6.26349L113.643 5.87579L113.99 5.68243C114.425 5.44055 114.888 5.26003 115.378 5.14044L115.383 5.13947C115.871 5.02303 116.359 4.96371 116.846 4.96368Z" fill="white" stroke="#151515" stroke-width="1.75877"/>
<path d="M94.0916 4.81177C95.044 4.81179 95.9638 4.95864 96.8464 5.2561C97.7396 5.55714 98.541 6.01791 99.2439 6.63501H99.2449C99.98 7.25845 100.547 8.03955 100.951 8.96021L101.099 9.32153C101.422 10.1783 101.575 11.1331 101.575 12.1711C101.575 13.3436 101.382 14.4124 100.969 15.3557L100.968 15.3606C100.564 16.2702 99.9978 17.0484 99.2683 17.6819L99.2654 17.6838C98.5532 18.2978 97.7242 18.7514 96.7908 19.051L96.7917 19.052C95.8758 19.3493 94.8979 19.4943 93.864 19.4944C92.8332 19.4944 91.854 19.3493 90.9324 19.0549V19.0559C90.0041 18.769 89.1738 18.3195 88.4519 17.7073L88.447 17.7034C87.7215 17.078 87.1599 16.2954 86.7576 15.3743C86.3445 14.4287 86.1531 13.3471 86.1531 12.1526C86.1531 11.2163 86.2738 10.3492 86.53 9.56177L86.532 9.55493C86.7941 8.77045 87.1643 8.06838 87.6501 7.46021L87.657 7.45239L87.8435 7.23364C88.2888 6.73357 88.7985 6.30957 89.3708 5.96411C90.0149 5.57534 90.7175 5.2905 91.4734 5.10571V5.10474C91.4753 5.10424 91.4773 5.10425 91.4792 5.10376C91.4812 5.10328 91.4831 5.10228 91.4851 5.10181V5.10278C92.2461 4.90774 93.0402 4.81177 93.864 4.81177H94.0916ZM93.864 11.6067C93.6445 11.6067 93.4855 11.635 93.3738 11.6731C93.2369 11.7198 93.1643 11.7691 93.1287 11.801C93.0889 11.8367 93.0615 11.8762 93.0408 11.928C93.0112 12.002 92.9968 12.0749 92.9968 12.1526C92.9968 12.2266 93.0138 12.3148 93.0632 12.4241C93.0943 12.4711 93.1502 12.5308 93.2625 12.594C93.3576 12.6431 93.5448 12.6985 93.8787 12.6985C94.11 12.6985 94.2708 12.6711 94.3777 12.6379C94.4964 12.5882 94.5517 12.5425 94.575 12.5178L94.5867 12.5061L94.5984 12.4954C94.6548 12.4399 94.6776 12.3966 94.6892 12.3684C94.7173 12.2825 94.7302 12.2056 94.7302 12.134C94.7302 12.0255 94.7088 11.9633 94.6902 11.927C94.6636 11.8754 94.6314 11.8384 94.5867 11.8069L94.5574 11.7864L94.53 11.7639C94.4856 11.7268 94.4295 11.6954 94.3484 11.675L94.3171 11.6672L94.2869 11.6575C94.2394 11.6418 94.1872 11.6292 94.1296 11.6204L93.9392 11.6067H93.864Z" fill="white" stroke="#151515" stroke-width="1.75877"/>
<path d="M79.8979 4.81177C80.9303 4.81181 81.9067 4.96354 82.8218 5.27271L82.8228 5.27173C82.8254 5.27258 82.8279 5.27381 82.8306 5.27466C82.8328 5.2754 82.8352 5.27586 82.8374 5.27661L82.8364 5.27759C83.7635 5.57678 84.5863 6.03383 85.2935 6.65454H85.2944C86.0316 7.2798 86.5997 8.06343 87.0034 8.98755C87.4154 9.9307 87.6088 10.9989 87.6089 12.1711C87.6089 13.3436 87.4155 14.4124 87.0034 15.3557L87.0015 15.3606C86.5977 16.2702 86.0318 17.0484 85.3022 17.6819L85.2993 17.6838C84.5871 18.2978 83.7582 18.7514 82.8247 19.051L82.8257 19.052C81.9098 19.3493 80.9318 19.4943 79.8979 19.4944C79.2169 19.4944 78.5526 19.4322 77.9077 19.3069C77.2592 19.1809 76.6472 18.9897 76.0747 18.7317L76.0669 18.7288L76.0581 18.7249C75.4841 18.4518 74.9581 18.1116 74.4829 17.7053C73.9994 17.2919 73.5867 16.8121 73.2466 16.2688L73.2407 16.259C72.9005 15.7008 72.642 15.0849 72.4604 14.4172L72.4595 14.4124C72.2749 13.7192 72.187 12.97 72.187 12.1711C72.1871 11.235 72.3077 10.3676 72.564 9.58032L72.5659 9.57446C72.828 8.78996 73.1983 8.08794 73.6841 7.47974L73.6909 7.47192L73.8774 7.2522C74.3227 6.75222 74.8325 6.32808 75.4048 5.98267C76.0482 5.58175 76.7509 5.2907 77.5073 5.10571V5.10474C77.5092 5.10424 77.5113 5.10425 77.5132 5.10376C77.5151 5.10328 77.5171 5.10228 77.519 5.10181V5.10278C78.2801 4.90774 79.0741 4.81177 79.8979 4.81177ZM79.9126 11.6067C79.6655 11.6067 79.4989 11.6409 79.3911 11.6819L79.3765 11.6877L79.3618 11.6926C79.2543 11.7293 79.1941 11.7696 79.1597 11.8C79.1096 11.8557 79.0828 11.9031 79.0679 11.9436C79.0434 12.0099 79.0308 12.0779 79.0308 12.1526C79.0308 12.2241 79.0428 12.3012 79.0708 12.387C79.0811 12.4123 79.1025 12.4484 79.1479 12.4963C79.1954 12.5355 79.2729 12.5855 79.397 12.637C79.5023 12.6698 79.6675 12.6985 79.9126 12.6985C80.4272 12.6985 80.5622 12.5708 80.5835 12.5461C80.7278 12.3794 80.7641 12.2491 80.7642 12.134C80.7642 12.0798 80.7543 12.0174 80.7271 11.9436C80.711 11.9001 80.682 11.8483 80.6245 11.7874C80.6109 11.773 80.5662 11.7328 80.4487 11.6926L80.4272 11.6858L80.4067 11.677C80.317 11.6413 80.1614 11.6067 79.9126 11.6067Z" fill="white" stroke="#151515" stroke-width="1.75877"/>
<path d="M64.7764 2.91119V5.44244L64.8564 5.41901C65.227 5.30655 65.5974 5.22786 65.9668 5.18268L66.2461 5.14459C66.5245 5.11242 66.7994 5.09674 67.0703 5.09674C67.952 5.09675 68.7937 5.25372 69.5879 5.5733C70.3925 5.88437 71.1003 6.35295 71.7031 6.97272C72.3194 7.5959 72.791 8.34438 73.124 9.20319C73.4762 10.085 73.6426 11.0675 73.6426 12.1339C73.6426 13.1632 73.4749 14.1209 73.127 14.9962L73.1279 14.9971C72.7967 15.855 72.333 16.6083 71.7314 17.2432L71.7305 17.2422C71.152 17.8635 70.4897 18.3513 69.7432 18.6924C68.9931 19.0352 68.2054 19.209 67.3887 19.209C67.0446 19.209 66.6941 19.1787 66.3379 19.1212H66.333C65.9705 19.0606 65.6118 18.9621 65.2578 18.8292C65.0933 18.7674 64.9335 18.6936 64.7764 18.6124V18.9239H57.7656V2.91119H64.7764ZM65.7041 11.6065C65.4188 11.6065 65.1941 11.6683 65.0078 11.7725C64.9278 11.8202 64.8398 11.9068 64.7764 12.1241V12.1719C64.7764 12.2871 64.7996 12.3407 64.8125 12.3633C64.8447 12.4198 64.8858 12.4642 64.9443 12.503C65.0327 12.5616 65.1377 12.6101 65.2617 12.6495C65.4115 12.6814 65.5586 12.6983 65.7041 12.6983C66.175 12.6983 66.341 12.5825 66.3945 12.5274C66.5429 12.3746 66.5702 12.2639 66.5703 12.1719C66.5703 12.0586 66.5444 11.9779 66.502 11.9083L66.4863 11.8809C66.4682 11.8488 66.4247 11.7915 66.2939 11.7286L66.2725 11.7178L66.251 11.7061C66.1668 11.6598 66.0018 11.6065 65.7041 11.6065Z" fill="white" stroke="#151515" stroke-width="1.75877"/>
<path d="M51.3589 4.81177C52.3913 4.81181 53.3677 4.96354 54.2827 5.27271L54.2837 5.27173C54.2863 5.27258 54.2889 5.27381 54.2915 5.27466C54.2937 5.2754 54.2961 5.27586 54.2983 5.27661L54.2974 5.27759C55.2244 5.57678 56.0473 6.03383 56.7544 6.65454H56.7554C57.4926 7.2798 58.0606 8.06343 58.4644 8.98755C58.8764 9.9307 59.0698 10.9989 59.0698 12.1711C59.0698 13.3436 58.8764 14.4124 58.4644 15.3557L58.4624 15.3606C58.0587 16.2702 57.4927 17.0484 56.7632 17.6819L56.7603 17.6838C56.048 18.2978 55.2191 18.7514 54.2856 19.051L54.2866 19.052C53.3707 19.3493 52.3927 19.4943 51.3589 19.4944C50.6779 19.4944 50.0136 19.4322 49.3687 19.3069C48.7202 19.1809 48.1081 18.9897 47.5356 18.7317L47.5278 18.7288L47.519 18.7249C46.9451 18.4518 46.4191 18.1116 45.9438 17.7053C45.4603 17.2919 45.0477 16.8121 44.7075 16.2688L44.7017 16.259C44.3614 15.7008 44.103 15.0849 43.9214 14.4172L43.9204 14.4124C43.7359 13.7192 43.6479 12.97 43.6479 12.1711C43.648 11.235 43.7687 10.3676 44.0249 9.58032L44.0269 9.57446C44.2889 8.78996 44.6593 8.08794 45.145 7.47974L45.1519 7.47192L45.3384 7.2522C45.7836 6.75222 46.2935 6.32808 46.8657 5.98267C47.5092 5.58175 48.2119 5.2907 48.9683 5.10571V5.10474C48.9702 5.10424 48.9722 5.10425 48.9741 5.10376C48.9761 5.10328 48.978 5.10228 48.98 5.10181V5.10278C49.741 4.90774 50.535 4.81177 51.3589 4.81177ZM51.3735 11.6067C51.1264 11.6067 50.9598 11.6409 50.8521 11.6819L50.8374 11.6877L50.8228 11.6926C50.7153 11.7293 50.6551 11.7696 50.6206 11.8C50.5706 11.8557 50.5437 11.9031 50.5288 11.9436C50.5044 12.0099 50.4917 12.0779 50.4917 12.1526C50.4917 12.2241 50.5037 12.3012 50.5317 12.387C50.542 12.4123 50.5635 12.4484 50.6089 12.4963C50.6563 12.5355 50.7338 12.5855 50.8579 12.637C50.9632 12.6698 51.1284 12.6985 51.3735 12.6985C51.8881 12.6985 52.0231 12.5708 52.0444 12.5461C52.1887 12.3794 52.225 12.2491 52.2251 12.134C52.2251 12.0798 52.2152 12.0174 52.188 11.9436C52.172 11.9001 52.1429 11.8483 52.0854 11.7874C52.0719 11.773 52.0272 11.7328 51.9097 11.6926L51.8882 11.6858L51.8677 11.677C51.7779 11.6413 51.6224 11.6067 51.3735 11.6067Z" fill="white" stroke="#151515" stroke-width="1.75877"/>
<path d="M36.2371 2.91119V5.44244L36.3171 5.41901C36.6877 5.30655 37.0581 5.22786 37.4275 5.18268L37.7068 5.14459C37.9852 5.11242 38.2601 5.09674 38.531 5.09674C39.4127 5.09675 40.2544 5.25372 41.0486 5.5733C41.8532 5.88436 42.561 6.35295 43.1638 6.97272C43.7801 7.5959 44.2517 8.34438 44.5847 9.20319C44.9369 10.085 45.1033 11.0675 45.1033 12.1339C45.1032 13.1632 44.9356 14.1209 44.5876 14.9962L44.5886 14.9971C44.2574 15.855 43.7937 16.6083 43.1921 17.2432L43.1912 17.2422C42.6127 17.8635 41.9504 18.3513 41.2039 18.6924C40.4538 19.0352 39.666 19.209 38.8494 19.209C38.5053 19.209 38.1548 19.1787 37.7986 19.1212H37.7937C37.4312 19.0606 37.0725 18.9621 36.7185 18.8292C36.554 18.7674 36.3942 18.6936 36.2371 18.6124V18.9239H29.2263V2.91119H36.2371ZM37.1648 11.6065C36.8795 11.6065 36.6548 11.6683 36.4685 11.7725C36.3885 11.8202 36.3005 11.9068 36.2371 12.1241V12.1719C36.2371 12.2871 36.2603 12.3407 36.2732 12.3633C36.3054 12.4198 36.3465 12.4641 36.405 12.503H36.406C36.4943 12.5615 36.5986 12.6102 36.7224 12.6495C36.8722 12.6814 37.0193 12.6983 37.1648 12.6983C37.6357 12.6983 37.8017 12.5825 37.8552 12.5274C38.0036 12.3746 38.0309 12.2639 38.031 12.1719C38.031 12.0586 38.0051 11.9779 37.9626 11.9083L37.947 11.8809C37.9289 11.8488 37.8854 11.7916 37.7546 11.7286L37.7332 11.7178L37.7117 11.7061C37.6275 11.6598 37.4625 11.6065 37.1648 11.6065Z" fill="white" stroke="#151515" stroke-width="1.75877"/>
</svg>
